<svg width="24" height="16" viewBox="0 0 24 16" fill="none" xmlns="http://www.w3.org/2000/svg">
<path d="M10.4487 8.48094L10.4467 8.00881C10.4467 6.04663 10.5616 4.25776 10.7347 3.09161L10.8863 2.36644C10.9707 1.98238 11.0816 1.54507 11.1972 1.32183C11.6205 0.505232 12.4481 0 13.3339 0H13.411C13.9885 0.0190931 15.2016 0.525794 15.2016 0.543418C17.1535 1.36244 20.9194 3.83429 22.6587 5.59652L23.1641 6.12558C23.2964 6.26897 23.4451 6.43868 23.5375 6.57096C23.8458 6.97925 24 7.48449 24 7.98972C24 8.5537 23.8269 9.07802 23.4996 9.50688L22.9804 10.0673L22.864 10.1869C21.2859 11.8979 17.1652 14.6958 15.0096 15.552L14.6841 15.6768C14.2925 15.8171 13.7438 15.9846 13.411 16C12.9878 16 12.5834 15.9016 12.198 15.7077C11.7165 15.436 11.3325 15.0072 11.1202 14.5019C10.9849 14.1524 10.7725 13.1023 10.7725 13.0832C10.5778 12.0243 10.465 10.3536 10.4487 8.48094ZM0 7.99941C0 6.88173 0.897444 5.97555 2.00434 5.97555L6.93664 6.41175C7.805 6.41175 8.50899 7.1226 8.50899 7.99941C8.50899 8.87769 7.805 9.58708 6.93664 9.58708L2.00434 10.0233C0.897444 10.0233 0 9.11709 0 7.99941Z" fill="#F4F2E9"/>
</svg>
