<svg width="87" height="121" viewBox="0 0 87 121" fill="none" xmlns="http://www.w3.org/2000/svg">
<path d="M2.304 30.056V22.76H54.528V30.056H32.448V89H24.384V30.056H2.304Z" fill="#37B6E9"/>
<path fill-rule="evenodd" clip-rule="evenodd" d="M35.18 37.448V74.312C35.18 84.104 40.076 89 49.868 89H61V81.704H49.772C45.42 81.704 43.244 79.528 43.244 75.176V36.584C43.244 32.232 45.42 30.056 49.772 30.056H81.26V26.12L76.94 22.76H49.868C40.076 22.76 35.18 27.656 35.18 37.448ZM65 81.704V89H76.94L81.26 85.64V81.704H65Z" fill="#37B6E9"/>
<path d="M43 0L54.2583 15H31.7417L43 0Z" fill="#FADD72"/>
</svg>
