<svg width="26" height="26" viewBox="0 0 26 26" fill="none" xmlns="http://www.w3.org/2000/svg">
<g clip-path="url(#clip0_207_1333)">
<path fill-rule="evenodd" clip-rule="evenodd" d="M3.25 0H22.75C24.545 0 26 1.45507 26 3.25V22.75C26 24.545 24.545 26 22.75 26H3.25C1.45507 26 0 24.545 0 22.75V3.25C0 1.45507 1.45507 0 3.25 0ZM8.125 11.375H17.875C18.7725 11.375 19.5 10.6475 19.5 9.75C19.5 8.85254 18.7725 8.125 17.875 8.125H8.125C7.22754 8.125 6.5 8.85254 6.5 9.75C6.5 10.6475 7.22754 11.375 8.125 11.375ZM8.125 17.875H17.875C18.7725 17.875 19.5 17.1475 19.5 16.25C19.5 15.3525 18.7725 14.625 17.875 14.625H8.125C7.22754 14.625 6.5 15.3525 6.5 16.25C6.5 17.1475 7.22754 17.875 8.125 17.875Z" fill="#6802ED"/>
</g>
<defs>
<clipPath id="clip0_207_1333">
<rect width="26" height="26" fill="white"/>
</clipPath>
</defs>
</svg>
