<svg width="26" height="26" viewBox="0 0 26 26" fill="none" xmlns="http://www.w3.org/2000/svg">
<g clip-path="url(#clip0_207_1293)">
<path d="M18.3697 6.7826H7.63056C7.16251 6.7826 6.78271 6.40311 6.78271 5.93475V2.54348C6.78271 1.14095 7.92367 0 9.3262 0H16.674C18.0766 0 19.2175 1.14095 19.2175 2.54348V5.9348C19.2175 6.40311 18.8377 6.7826 18.3697 6.7826ZM8.4784 5.08696H17.5219V2.54348C17.5219 2.07599 17.1415 1.69564 16.674 1.69564H9.3262C8.8587 1.69564 8.47835 2.07599 8.47835 2.54348V5.08696H8.4784Z" fill="#696B6F"/>
<path d="M16.6739 0H13V1.69564H16.6739C17.1414 1.69564 17.5218 2.07599 17.5218 2.54348V5.08696H13V6.7826H18.3696C18.8376 6.7826 19.2174 6.40311 19.2174 5.93475V2.54348C19.2174 1.14095 18.0764 0 16.6739 0Z" fill="#616267"/>
<path d="M0 9.04349V23.4565C0 24.8591 1.14095 26 2.54348 26H23.4565C24.859 26 26 24.8591 26 23.4565V9.04349H0Z" fill="#CED1DD"/>
<path d="M13 26H23.4565C24.859 26 26 24.8591 26 23.4565V9.04349H13V26Z" fill="#C4C6D2"/>
<path d="M21.761 26H4.23926V9.04349H21.761V26H21.761Z" fill="#DFE2EF"/>
<path d="M21.7609 9.04349H13V26H21.7609V9.04349Z" fill="#D5D7E5"/>
<path d="M26 10.7391H0V7.63044C0 6.22573 1.13872 5.08696 2.54348 5.08696H23.4565C24.8612 5.08696 26 6.22568 26 7.63044V10.7391Z" fill="#FF5F4A"/>
<path d="M23.4565 5.08696H13V10.7391H26V7.63044C26 6.22568 24.8613 5.08696 23.4565 5.08696Z" fill="#D8482B"/>
<path d="M14.6957 22.6087H11.3044C10.8364 22.6087 10.4566 22.2292 10.4566 21.7608V20.0652H8.76093C8.29288 20.0652 7.91309 19.6857 7.91309 19.2174V15.826C7.91309 15.3577 8.29288 14.9782 8.76093 14.9782H10.4566V13.2826C10.4566 12.8142 10.8364 12.4347 11.3044 12.4347H14.6957C15.1638 12.4347 15.5436 12.8142 15.5436 13.2826V14.9782H17.2392C17.7073 14.9782 18.0871 15.3577 18.0871 15.826V19.2174C18.0871 19.6857 17.7073 20.0652 17.2392 20.0652H15.5436V21.7608C15.5436 22.2292 15.1638 22.6087 14.6957 22.6087Z" fill="#FF5F4A"/>
<path d="M17.2391 14.9783H15.5435V13.2826C15.5435 12.8143 15.1637 12.4348 14.6956 12.4348H13V22.6087H14.6956C15.1637 22.6087 15.5435 22.2292 15.5435 21.7609V20.0652H17.2391C17.7072 20.0652 18.087 19.6857 18.087 19.2173V15.826C18.087 15.3577 17.7072 14.9783 17.2391 14.9783Z" fill="#D8482B"/>
</g>
<defs>
<clipPath id="clip0_207_1293">
<rect width="26" height="26" fill="white"/>
</clipPath>
</defs>
</svg>
