<svg width="26" height="26" viewBox="0 0 26 26" fill="none" xmlns="http://www.w3.org/2000/svg">
<path d="M6.09375 14.625C5.77052 14.625 5.46052 14.7534 5.23196 14.982C5.0034 15.2105 4.875 15.5205 4.875 15.8438C4.875 16.167 5.0034 16.477 5.23196 16.7055C5.46052 16.9341 5.77052 17.0625 6.09375 17.0625H8.53125C8.85448 17.0625 9.16448 16.9341 9.39304 16.7055C9.6216 16.477 9.75 16.167 9.75 15.8438C9.75 15.5205 9.6216 15.2105 9.39304 14.982C9.16448 14.7534 8.85448 14.625 8.53125 14.625H6.09375Z" fill="#00C603"/>
<path fill-rule="evenodd" clip-rule="evenodd" d="M0 6.90625C0 5.93655 0.385211 5.00657 1.07089 4.32089C1.75657 3.63521 2.68655 3.25 3.65625 3.25H22.3438C23.3134 3.25 24.2434 3.63521 24.9291 4.32089C25.6148 5.00657 26 5.93655 26 6.90625V19.0938C26 20.0634 25.6148 20.9934 24.9291 21.6791C24.2434 22.3648 23.3134 22.75 22.3438 22.75H3.65625C2.68655 22.75 1.75657 22.3648 1.07089 21.6791C0.385211 20.9934 0 20.0634 0 19.0938L0 6.90625ZM23.5625 6.90625V8.125H2.4375V6.90625C2.4375 6.58302 2.5659 6.27302 2.79446 6.04446C3.02302 5.8159 3.33302 5.6875 3.65625 5.6875H22.3438C22.667 5.6875 22.977 5.8159 23.2055 6.04446C23.4341 6.27302 23.5625 6.58302 23.5625 6.90625ZM23.5625 11.375H2.4375V19.0938C2.4375 19.7665 2.9835 20.3125 3.65625 20.3125H22.3438C22.667 20.3125 22.977 20.1841 23.2055 19.9555C23.4341 19.727 23.5625 19.417 23.5625 19.0938V11.375Z" fill="#00C603"/>
</svg>
