<svg width="26" height="26" viewBox="0 0 26 26" fill="none" xmlns="http://www.w3.org/2000/svg">
<path d="M23.5625 11.375H20.3125V4.0625C20.3124 3.91995 20.2747 3.77994 20.2033 3.65654C20.132 3.53314 20.0294 3.43069 19.9059 3.35948C19.7824 3.28826 19.6423 3.25079 19.4998 3.25083C19.3572 3.25087 19.2172 3.28841 19.0938 3.35969L15.4375 5.48437L11.375 3.34344C11.2569 3.28014 11.1251 3.24702 10.9911 3.24702C10.8571 3.24702 10.7253 3.28014 10.6072 3.34344L6.54469 5.56156L2.84375 3.36781C2.72023 3.2965 2.58012 3.25896 2.4375 3.25896C2.29488 3.25896 2.15477 3.2965 2.03125 3.36781C1.90904 3.43836 1.80731 3.53952 1.73608 3.66133C1.66484 3.78314 1.62656 3.9214 1.625 4.0625V19.9062C1.625 20.6605 1.92461 21.3838 2.45792 21.9171C2.99122 22.4504 3.71454 22.75 4.46875 22.75H21.125C21.1723 22.754 21.2199 22.754 21.2672 22.75C21.3525 22.75 21.4419 22.75 21.5312 22.75C22.2855 22.75 23.0088 22.4504 23.5421 21.9171C24.0754 21.3838 24.375 20.6605 24.375 19.9062V12.1875C24.375 11.972 24.2894 11.7653 24.137 11.613C23.9847 11.4606 23.778 11.375 23.5625 11.375ZM4.46875 21.125C4.14552 21.125 3.83552 20.9966 3.60696 20.768C3.3784 20.5395 3.25 20.2295 3.25 19.9062V5.49656L6.09375 7.19469C6.21547 7.26911 6.35465 7.31017 6.49728 7.31374C6.63991 7.3173 6.78096 7.28325 6.90625 7.215L10.9688 4.98469L15.0516 7.12969C15.1716 7.19583 15.3065 7.23052 15.4436 7.23052C15.5807 7.23052 15.7155 7.19583 15.8356 7.12969L18.6794 5.50469V19.9062C18.6783 20.3281 18.7727 20.7448 18.9556 21.125H4.46875ZM22.75 19.9062C22.75 20.2295 22.6216 20.5395 22.393 20.768C22.1645 20.9966 21.8545 21.125 21.5312 21.125C21.208 21.125 20.898 20.9966 20.6695 20.768C20.4409 20.5395 20.3125 20.2295 20.3125 19.9062V13H22.75V19.9062Z" fill="#0C3BF3"/>
<path d="M15.4375 11.375H6.5C6.28451 11.375 6.07785 11.4606 5.92548 11.613C5.7731 11.7653 5.6875 11.972 5.6875 12.1875C5.6875 12.403 5.7731 12.6097 5.92548 12.762C6.07785 12.9144 6.28451 13 6.5 13H15.4375C15.653 13 15.8597 12.9144 16.012 12.762C16.1644 12.6097 16.25 12.403 16.25 12.1875C16.25 11.972 16.1644 11.7653 16.012 11.613C15.8597 11.4606 15.653 11.375 15.4375 11.375Z" fill="#0C3BF3"/>
<path d="M15.4375 16.25H6.5C6.28451 16.25 6.07785 16.3356 5.92548 16.488C5.7731 16.6403 5.6875 16.847 5.6875 17.0625C5.6875 17.278 5.7731 17.4847 5.92548 17.637C6.07785 17.7894 6.28451 17.875 6.5 17.875H15.4375C15.653 17.875 15.8597 17.7894 16.012 17.637C16.1644 17.4847 16.25 17.278 16.25 17.0625C16.25 16.847 16.1644 16.6403 16.012 16.488C15.8597 16.3356 15.653 16.25 15.4375 16.25Z" fill="#0C3BF3"/>
</svg>
