<svg width="26" height="26" viewBox="0 0 26 26" fill="none" xmlns="http://www.w3.org/2000/svg">
<path d="M11.375 23.5625C11.375 24.4563 12.1062 25.1875 13 25.1875C13.8938 25.1875 14.625 24.4563 14.625 23.5625H11.375Z" fill="#616466"/>
<path d="M10.1156 19.5H15.8438C16.1688 17.7531 17.2656 16.0469 18.4031 14.2594C19.7437 12.1875 21.125 10.0344 21.125 7.9625C21.125 4.02188 17.4688 0.8125 13 0.8125C8.53125 0.8125 4.875 4.02188 4.875 7.9625C4.875 10.0344 6.25625 12.1875 7.55625 14.2594C8.69375 16.0469 9.79062 17.7531 10.1156 19.5" fill="#FFCE31"/>
<path d="M10.7248 13.65C10.7654 13.8937 10.8467 14.1375 10.8873 14.3812C11.0092 14.8281 11.0904 15.2344 11.2123 15.6812C11.5779 17.225 11.9029 18.525 12.1873 19.5406H12.431C12.2279 18.525 11.9435 17.1844 11.5779 15.6406C11.4967 15.2344 11.3748 14.7875 11.2935 14.3406C11.2529 14.1375 11.2123 13.8937 11.131 13.6906C11.456 13.6094 12.2279 13.3656 12.9998 12.5125C13.7717 13.3656 14.5435 13.6094 14.8685 13.6906C14.8279 13.9344 14.7873 14.1375 14.706 14.3406C14.6248 14.7875 14.5029 15.2344 14.4217 15.6406C14.056 17.1844 13.7717 18.525 13.5685 19.5406H13.8123C14.056 18.525 14.4217 17.225 14.7873 15.6812C14.8685 15.275 14.9904 14.8281 15.1123 14.3812C15.1529 14.1375 15.2341 13.8937 15.2748 13.65C15.5998 13.6094 15.8841 13.5281 16.0873 13.325C16.331 13.0812 16.4529 12.7969 16.3716 12.4719C16.331 12.3094 16.2498 12.1062 16.006 12.0656C15.8842 12.025 15.8029 12.025 15.681 12.0656C15.5591 12.1062 15.4779 12.1875 15.4373 12.2281C15.2342 12.4719 15.1529 12.7156 15.0716 12.9594L14.9498 13.325C14.9498 13.325 14.6248 13.3656 13.8529 12.8375C13.4466 12.5531 13.3248 12.35 13.2029 12.2281C13.3248 12.0656 13.4467 11.9437 13.5685 11.7406C13.6092 11.6187 13.6498 11.5375 13.6904 11.375C13.6904 11.2531 13.6904 11.0906 13.6092 10.9687C13.5279 10.8469 13.4466 10.725 13.2435 10.6437C13.1623 10.6031 13.081 10.6031 12.9998 10.6031C12.9185 10.6031 12.8373 10.6031 12.756 10.6437C12.5935 10.725 12.4717 10.8469 12.3904 10.9687C12.3092 11.0906 12.3092 11.2531 12.3092 11.375C12.3092 11.4969 12.3498 11.6187 12.431 11.7406C12.5123 11.9437 12.6342 12.1062 12.7967 12.2281C12.6748 12.35 12.5529 12.5531 12.1467 12.8375C11.4154 13.325 11.0498 13.325 11.0498 13.325L10.9279 12.9594C10.8467 12.7156 10.7654 12.4719 10.5623 12.2281C10.5217 12.1875 10.4404 12.1062 10.3185 12.0656C10.1967 12.025 10.0748 12.025 9.99353 12.0656C9.74978 12.1469 9.66853 12.35 9.6279 12.4719C9.58728 12.7969 9.70915 13.0812 9.91228 13.325C10.156 13.5281 10.4404 13.6094 10.7248 13.65M15.4373 13.0406C15.5185 12.8375 15.5998 12.5937 15.7623 12.4719C15.8029 12.4312 15.8435 12.4312 15.8435 12.4312H15.9248C15.9654 12.4312 16.006 12.4719 16.0467 12.5937C16.0873 12.7562 16.006 13 15.8435 13.1219C15.7217 13.2031 15.5592 13.2844 15.3967 13.325C15.3967 13.2031 15.3967 13.1219 15.4373 13.0406M12.756 11.0906C12.8373 11.0094 12.9185 10.9281 12.9998 10.9281C13.081 10.9281 13.1623 10.9687 13.2435 11.0906C13.3248 11.2125 13.2842 11.375 13.2029 11.5375C13.1623 11.6594 13.081 11.7812 12.9998 11.8625C12.9185 11.7406 12.8373 11.6594 12.7967 11.5375C12.7154 11.4156 12.6748 11.2531 12.756 11.0906ZM9.99353 12.5125C9.99353 12.4312 10.0342 12.3906 10.1154 12.35H10.1967C10.1967 12.35 10.2373 12.3906 10.2779 12.3906C10.3998 12.5125 10.5217 12.7562 10.6029 12.9594C10.6435 13.0406 10.6435 13.1219 10.6842 13.2031C10.5217 13.1625 10.3592 13.1219 10.2373 13C10.0748 12.9187 9.99353 12.7156 9.99353 12.5125" fill="#C79127"/>
<path d="M10.1157 20.3125H15.9251V21.0437H10.1157V20.3125Z" fill="#94989B"/>
<path d="M10.522 21.775H15.5188V22.5062H10.522V21.775Z" fill="#94989B"/>
<path d="M10.522 21.0437H15.5188V21.775H10.522V21.0437Z" fill="#616466"/>
<path d="M15.9251 20.3125L10.522 21.775V22.5469L15.9251 21.0437V20.3125Z" fill="#94989B"/>
<path d="M10.9282 23.2781H15.1126V24.0094H10.9282V23.2781Z" fill="#94989B"/>
<path d="M10.9282 22.5469H15.1126V23.2781H10.9282V22.5469Z" fill="#616466"/>
<path d="M15.5188 21.775L10.9282 23.2781V24.05L15.5188 22.5469V21.775Z" fill="#94989B"/>
</svg>
