<svg width="26" height="26" viewBox="0 0 26 26" fill="none" xmlns="http://www.w3.org/2000/svg">
<path fill-rule="evenodd" clip-rule="evenodd" d="M23.5625 10.5625C22.217 10.5625 21.125 11.6545 21.125 13C21.125 14.3455 22.217 15.4375 23.5625 15.4375V18.6875C23.5625 19.5853 22.8353 20.3125 21.9375 20.3125C18.0026 20.3125 7.99744 20.3125 4.0625 20.3125C3.16469 20.3125 2.4375 19.5853 2.4375 18.6875C2.4375 17.2697 2.4375 15.4375 2.4375 15.4375C3.783 15.4375 4.875 14.3455 4.875 13C4.875 11.6545 3.783 10.5625 2.4375 10.5625V7.3125C2.4375 6.41469 3.16469 5.6875 4.0625 5.6875C7.99744 5.6875 18.0026 5.6875 21.9375 5.6875C22.8353 5.6875 23.5625 6.41469 23.5625 7.3125C23.5625 8.73031 23.5625 10.5625 23.5625 10.5625Z" fill="#90E0EF"/>
<path fill-rule="evenodd" clip-rule="evenodd" d="M23.5625 11.375C24.011 11.375 24.375 11.011 24.375 10.5625V7.3125C24.375 5.96619 23.2838 4.875 21.9375 4.875H4.0625C2.71619 4.875 1.625 5.96619 1.625 7.3125V10.5625C1.625 11.011 1.989 11.375 2.4375 11.375C3.3345 11.375 4.0625 12.103 4.0625 13C4.0625 13.897 3.3345 14.625 2.4375 14.625C1.989 14.625 1.625 14.989 1.625 15.4375V18.6875C1.625 20.0338 2.71619 21.125 4.0625 21.125H21.9375C23.2838 21.125 24.375 20.0338 24.375 18.6875V15.4375C24.3669 14.9598 24.0728 14.7087 23.5625 14.625C22.6655 14.625 21.9375 13.897 21.9375 13C21.9375 12.103 22.6655 11.375 23.5625 11.375ZM17.875 6.5V8.125C17.875 8.5735 17.511 8.9375 17.0625 8.9375C16.614 8.9375 16.25 8.5735 16.25 8.125V6.5H4.0625C3.614 6.5 3.25 6.864 3.25 7.3125V9.85238C4.65075 10.2139 5.6875 11.4863 5.6875 13C5.6875 14.5137 4.65075 15.7861 3.25 16.1476V18.6875C3.25 19.136 3.614 19.5 4.0625 19.5H16.25V17.875C16.25 17.4265 16.614 17.0625 17.0625 17.0625C17.511 17.0625 17.875 17.4265 17.875 17.875V19.5H21.9375C22.386 19.5 22.75 19.136 22.75 18.6875V16.1476C21.3493 15.7861 20.3125 14.5129 20.3125 13C20.3125 11.4863 21.3493 10.2139 22.75 9.85238V7.3125C22.75 6.864 22.386 6.5 21.9375 6.5H17.875ZM16.25 11.375V14.625C16.25 15.0735 16.614 15.4375 17.0625 15.4375C17.511 15.4375 17.875 15.0735 17.875 14.625V11.375C17.875 10.9265 17.511 10.5625 17.0625 10.5625C16.614 10.5625 16.25 10.9265 16.25 11.375Z" fill="#1990A7"/>
</svg>
