<svg width="26" height="20" viewBox="0 0 26 20" fill="none" xmlns="http://www.w3.org/2000/svg">
<path d="M22.4011 6.76147C21.9637 6.77371 21.6134 7.13159 21.6134 7.5713C21.6134 8.011 21.9637 8.36889 22.4003 8.38112H22.4018C22.8393 8.36889 23.1895 8.011 23.1895 7.5713C23.1895 7.13159 22.8393 6.77371 22.4026 6.76147H22.4011ZM21.5913 12.4295V12.4517C21.5913 12.899 21.9537 13.2615 22.4011 13.2615C22.8484 13.2615 23.2109 12.899 23.2109 12.4517C23.2109 12.444 23.2109 12.4364 23.2109 12.4279V12.4287V9.7293C23.2109 9.72241 23.2109 9.71477 23.2109 9.70712C23.2109 9.25977 22.8484 8.8973 22.4011 8.8973C21.9537 8.8973 21.5913 9.25977 21.5913 9.70712V9.73083V9.7293V12.4295ZM19.7024 6.76147C20.1398 6.77371 20.4901 7.13159 20.4901 7.5713C20.4901 8.011 20.1398 8.36889 19.7032 8.38112H19.7017H16.7331V9.46089H18.6219C19.0593 9.47312 19.4096 9.831 19.4096 10.2707C19.4096 10.7104 19.0593 11.0683 18.6227 11.0805H18.6211H16.7323V12.4302V12.4524C16.7323 12.8998 16.3698 13.2622 15.9225 13.2622C15.4751 13.2622 15.1127 12.8998 15.1127 12.4524C15.1127 12.4448 15.1127 12.4371 15.1127 12.4287V12.4302V7.5713C15.1127 7.57053 15.1127 7.569 15.1127 7.56747C15.1127 7.12241 15.4736 6.76147 15.9187 6.76147H15.9225H19.7024ZM25.9096 8.38036V11.6189C25.9096 14.004 23.9756 15.9372 21.5913 15.9372H19.9716C18.2701 17.9247 15.7581 19.1757 12.9547 19.1757C10.1513 19.1757 7.6392 17.9247 5.94767 15.9494L5.93696 15.9372H4.31732C1.9322 15.9372 -0.000976562 14.0032 -0.000976562 11.6189V8.38036C-0.000976562 5.99524 1.93296 4.06206 4.31732 4.06206H5.93696C7.63843 2.07459 10.1505 0.823532 12.9539 0.823532C15.7573 0.823532 18.2694 2.07459 19.9609 4.04983L19.9716 4.06206H21.5913C23.9764 4.06206 25.9096 5.996 25.9096 8.38036ZM11.0651 6.76147C10.6277 6.77371 10.2774 7.13159 10.2774 7.5713C10.2774 8.011 10.6277 8.36889 11.0643 8.38112H11.0651C11.5025 8.36889 11.8527 8.011 11.8527 7.5713C11.8527 7.13159 11.5025 6.77371 11.0658 6.76147H11.0643H11.0651ZM10.2553 12.4295C10.2675 12.8669 10.6254 13.2171 11.0651 13.2171C11.5048 13.2171 11.8627 12.8669 11.8749 12.4302V12.4287V9.7293C11.8627 9.29189 11.5048 8.94165 11.0651 8.94165C10.6254 8.94165 10.2675 9.29189 10.2553 9.72853V9.73006V12.4295ZM7.82579 12.5189L9.08526 7.93071C9.13726 7.82671 9.16708 7.70359 9.16708 7.57436C9.16708 7.12394 8.80155 6.75841 8.35114 6.75841C7.96573 6.75841 7.64226 7.02606 7.55661 7.38624L7.55585 7.39159L7.01596 9.37065L6.47608 7.39159C6.37055 7.0383 6.04785 6.78518 5.66626 6.78518C5.28467 6.78518 4.96273 7.0383 4.85796 7.38624L4.85643 7.39236L4.31655 9.37142L3.77667 7.39236C3.68185 7.04059 3.36526 6.78518 2.98979 6.78518C2.54014 6.78518 2.17614 7.14918 2.17614 7.59883C2.17614 7.71965 2.20214 7.83359 2.24955 7.93683L2.24726 7.93147L3.50673 12.5197C3.56179 12.9227 3.90285 13.2294 4.31655 13.2294C4.73026 13.2294 5.07132 12.9219 5.12561 12.5235L5.12638 12.5189L5.66626 10.6301L6.20614 12.5189C6.24514 12.9349 6.59308 13.2584 7.01596 13.2584C7.43885 13.2584 7.78679 12.9357 7.82502 12.5228V12.5197L7.82579 12.5189ZM21.5905 5.14183H15.9233C15.9202 5.14183 15.9164 5.14183 15.9126 5.14183C14.5766 5.14183 13.4938 6.22465 13.4938 7.56059V7.5713V7.57053V12.4287V12.4432C13.4938 13.7195 12.5058 14.7656 11.2532 14.8574L11.2456 14.8582H21.592H21.6058C23.3868 14.8582 24.8313 13.4144 24.8313 11.6327C24.8313 11.6281 24.8313 11.6235 24.8313 11.6181V11.6189V8.37959C24.8313 8.37577 24.8313 8.37118 24.8313 8.36583C24.8313 6.58483 23.3876 5.1403 21.6058 5.1403C21.6012 5.1403 21.5966 5.1403 21.5913 5.1403H21.592L21.5905 5.14183Z" fill="#EB4E0A"/>
</svg>
