<svg width="27" height="26" viewBox="0 0 27 26" fill="none" xmlns="http://www.w3.org/2000/svg">
<path d="M9.96306 15.1863C10.1535 14.84 10.5172 14.625 10.9123 14.625H18.3425C19.155 14.625 19.87 14.1808 20.2384 13.5092L23.9009 6.85795C24.0198 6.64189 24.0569 6.40277 24.0223 6.17642C24.2146 5.98089 24.3334 5.71265 24.3334 5.41667C24.3334 4.81837 23.8484 4.33334 23.25 4.33334H7.00003C6.96432 4.33334 6.929 4.33507 6.89417 4.33844L6.70938 3.94805C6.35106 3.19104 5.58854 2.70834 4.75101 2.70834H3.66341C3.06511 2.70834 2.58008 3.19337 2.58008 3.79167C2.58008 4.38997 3.06511 4.875 3.66341 4.875H3.90731C4.41997 4.875 4.88679 5.17025 5.10649 5.63345L8.17027 12.0929C8.46938 12.7235 8.44638 13.4597 8.10848 14.0703L7.18424 15.7408C6.39341 17.1925 7.43341 18.9583 9.08008 18.9583H20.9967C21.595 18.9583 22.08 18.4733 22.08 17.875C22.08 17.2767 21.595 16.7917 20.9967 16.7917H10.9123C10.0883 16.7917 9.56596 15.9082 9.96306 15.1863Z" fill="#67BE8A"/>
<path d="M9.08015 20.0417C7.88848 20.0417 6.92432 21.0167 6.92432 22.2083C6.92432 23.4 7.88848 24.375 9.08015 24.375C10.2718 24.375 11.2468 23.4 11.2468 22.2083C11.2468 21.0167 10.2718 20.0417 9.08015 20.0417Z" fill="#67BE8A"/>
<path d="M19.9136 20.0417C18.722 20.0417 17.7578 21.0167 17.7578 22.2083C17.7578 23.4 18.722 24.375 19.9136 24.375C21.1053 24.375 22.0803 23.4 22.0803 22.2083C22.0803 21.0167 21.1053 20.0417 19.9136 20.0417Z" fill="#67BE8A"/>
</svg>
